<svg width="50" height="50" viewBox="0 0 50 50" xmlns="http://www.w3.org/2000/svg">
  <defs>
    <linearGradient id="icon-gradient" x1="0%" y1="0%" x2="100%" y2="100%">
      <stop offset="0%" style="stop-color:#3b82f6;stop-opacity:1" />
      <stop offset="50%" style="stop-color:#8b5cf6;stop-opacity:1" />
      <stop offset="100%" style="stop-color:#06b6d4;stop-opacity:1" />
    </linearGradient>
    <filter id="glow">
      <feGaussianBlur stdDeviation="2" result="coloredBlur"/>
      <feMerge> 
        <feMergeNode in="coloredBlur"/>
        <feMergeNode in="SourceGraphic"/>
      </feMerge>
    </filter>
  </defs>
  
  <!-- Background circle -->
  <circle cx="25" cy="25" r="23" fill="url(#icon-gradient)" filter="url(#glow)"/>
  
  <!-- Lottery ticket -->
  <rect x="8" y="15" width="34" height="20" rx="3" fill="white" opacity="0.9"/>
  
  <!-- Perforations -->
  <circle cx="8" cy="20" r="1.5" fill="none" stroke="url(#icon-gradient)" stroke-width="1"/>
  <circle cx="8" cy="25" r="1.5" fill="none" stroke="url(#icon-gradient)" stroke-width="1"/>
  <circle cx="8" cy="30" r="1.5" fill="none" stroke="url(#icon-gradient)" stroke-width="1"/>
  <circle cx="42" cy="20" r="1.5" fill="none" stroke="url(#icon-gradient)" stroke-width="1"/>
  <circle cx="42" cy="25" r="1.5" fill="none" stroke="url(#icon-gradient)" stroke-width="1"/>
  <circle cx="42" cy="30" r="1.5" fill="none" stroke="url(#icon-gradient)" stroke-width="1"/>
  
  <!-- Trading candlestick -->
  <g transform="translate(18, 17)">
    <!-- Wick -->
    <line x1="7" y1="1" x2="7" y2="15" stroke="url(#icon-gradient)" stroke-width="2"/>
    <!-- Candle body -->
    <rect x="4" y="5" width="6" height="7" fill="#10b981" stroke="white" stroke-width="1" rx="1"/>
  </g>
  
  <!-- Lucky stars -->
  <path d="M35,10 L36,7 L37,10 L40,9 L38,12 L40,15 L37,14 L36,17 L35,14 L32,15 L34,12 L32,9 Z" 
        fill="white" opacity="0.9" transform="scale(0.4)"/>
  <path d="M12,35 L13,33 L14,35 L16,34 L15,36 L16,38 L14,37 L13,39 L12,37 L10,38 L11,36 L10,34 Z" 
        fill="white" opacity="0.7" transform="scale(0.3)"/>
</svg>